# xmcd
#
# Track frame offsets:
#	150
#	23532
#	55197
#	66527
#	79065
#	87207
#	93502
#	100587
#	112722
#	120867
#	133577
#	145160
#	157770
#	163557
#	168375
#	181650
#	188010
#	196452
#	229415
#	237420
#	258522
#	275905
#
# Disc length: 3874 seconds
#
# Revision: 7
# Processed by: cddbd v1.5.2PL0 Copyright (c) Steve Scherf et al.
# Submitted via: audiograbber 1.83.01
#
DISCID=1d0f2016
DTITLE=Georg Friedrich Händel - Water Music and Royal Fireworks Music (Malgoire)
DYEAR=1988
DGENRE=Classical
TTITLE0=Water Music - Suite in F major - I. Ouverture: Adagio e staccato
TTITLE1=Water Music - Suite in F major - II. [Allegro] - Andante - [Allegro da 
TTITLE1=capo]
TTITLE2=Water Music - Suite in F major - III. [Allegro]
TTITLE3=Water Music - Suite in F major - IV. Air
TTITLE4=Water Music - Suite in F major - V. [Menuet]
TTITLE5=Water Music - Suite in F major - VI. Bourrée
TTITLE6=Water Music - Suite in F major - VII. Hornpipe
TTITLE7=Water Music - Suite in F major - VIII. [Andante]
TTITLE8=Water Music - Suite in D major - I. [Allegro]
TTITLE9=Water Music - Suite in D major - II. Alla Hornpipe
TTITLE10=Water Music - Suite in G major - III. [Sarabande]
TTITLE11=Water Music - Suite in G major - IV. Rigaudon
TTITLE12=Water Music - Suite in D major - V. Lentement
TTITLE13=Water Music - Suite in D major - VI. Bourrée
TTITLE14=Water Music - Suite in G minor - VII. Menuet
TTITLE15=Water Music - Suite in G major - VIII. Gigue
TTITLE16=Water Music - Suite in D major - IX. Minuet [Coro]
TTITLE17=The Music for Royal Fireworks - I. Ouverture
TTITLE18=The Music for Royal Fireworks - II. Bourée
TTITLE19=The Music for Royal Fireworks - III. La Paix: Largo alla siciliana
TTITLE20=The Music for Royal Fireworks - IV. La Rejoussance: Allegro
TTITLE21=The Music for Royal Fireworks - V. Menuet 1 - Menuet II
EXTD=
EXTT0=
EXTT1=
EXTT2=
EXTT3=
EXTT4=
EXTT5=
EXTT6=
EXTT7=
EXTT8=
EXTT9=
EXTT10=
EXTT11=
EXTT12=
EXTT13=
EXTT14=
EXTT15=
EXTT16=
EXTT17=
EXTT18=
EXTT19=
EXTT20=
EXTT21=
PLAYORDER=
